{"title":"Limitless 2011 R5 V2 Full LiNE AC3 XViD - DTRG - SAFCUK009","uid":6403574,"size":1406673010,"categoryP":"video","categoryS":"movies","magnet":"?xt=urn:btih:3de16f60e146e047257e32f0d0b9b17b1725b005&amp;dn=Limitless+2011+R5+V2+Full+LiNE+AC3+XViD+-+DTRG+-+SAFCUK009&amp;tr=udp%3A%2F%2Ftracker.openbittorrent.com%3A80&amp;tr=udp%3A%2F%2Fopen.demonii.com%3A1337&amp;tr=udp%3A%2F%2Ftracker.coppersurfer.tk%3A6969&amp;tr=udp%3A%2F%2Fexodus.desync.com%3A6969","seeders":1,"leechers":0,"uploader":"SAFCukO09","files":3,"time":1305735751,"description":"Format : AVI\nFormat/Info : Audio Video Interleave\nFile size : 1.31 GiB\nDuration : 1h 37mn\nOverall bit rate : 1 929 Kbps\nWriting application : VirtualDubMod 1.5.10.3 | www.virtualdub-fr.org || (build 2550/release)\nWriting library : VirtualDubMod build 2550/release\n\nVideo\nID : 0\nFormat : MPEG-4 Visual\nFormat profile : Advanced Simple@L5\nFormat settings, BVOP : 2\nFormat settings, QPel : No\nFormat settings, GMC : No warppoints\nFormat settings, Matrix : Default (MPEG)\nMuxing mode : Packed bitstream\nCodec ID : XVID\nCodec ID/Hint : XviD\nDuration : 1h 37mn\nBit rate : 1 791 Kbps\nWidth : 720 pixels\nHeight : 304 pixels\nDisplay aspect ratio : 2.35:1\nFrame rate : 25.000 fps\nColor space : YUV\nChroma subsampling : 4:2:0\nBit depth : 8 bits\nScan type : Progressive\nCompression mode : Lossy\nBits/(Pixel*Frame) : 0.327\nStream size : 1.22 GiB (93%)\nWriting library : XviD 61\n\nAudio\nID : 1\nFormat : MPEG Audio\nFormat version : Version 1\nFormat profile : Layer 3\nMode : Joint stereo\nMode extension : MS Stereo\nCodec ID : 55\nCodec ID/Hint : MP3\nDuration : 1h 37mn\nBit rate mode : Constant\nBit rate : 128 Kbps\nChannel(s) : 2 channels\nSampling rate : 44.1 KHz\nCompression mode : Lossy\nStream size : 89.0 MiB (7%)\nAlignment : Split accross interleaves\nInterleave, duration : 40 ms (1.00 video frame)\nInterleave, preload duration : 500 ms\nWriting library : LAME3.98.4\n\n\n\n &lt;a href=&quot;\nhttp://www.imdb.com/title/tt1219289/&quot; rel=&quot;nofollow&quot; target=&quot;_NEW&quot;&gt;\nhttp://www.imdb.com/title/tt1219289/&lt;/a&gt;\n\n\n\n\n\n\n\n\nStoryline\n\nAn action-thriller about a writer who takes an experimental drug that allows him to use 100 percent of his mind. As one man evolves into the perfect version of himself, forces more corrupt than he can imagine mark him for assassination. Out-of-work writer Eddie Morra's (Cooper) rejection by girlfriend Lindy (Abbie Cornish) confirms his belief that he has zero future. That all vanishes the day an old friend introduces Eddie to NZT, a designer pharmaceutical that makes him laser focused and more confident than any man alive. Now on an NZT-fueled odyssey, everything Eddie's read, heard or seen is instantly organized and available to him. As the former nobody rises to the top of the financial world, he draws the attention of business mogul Carl Van Loon (De Niro), who sees this enhanced version of Eddie as the tool to make billions. But brutal side effects jeopardize his meteoric ascent. With a dwindling stash and hit men who will eliminate him to get the NZT...\n\n\n\n\n\n\n\n\n\n\n\n\n\n\n\nSource Used\n\nVIDEO: ............... Limitless.DVD.R5.KINOPARK ......Thanks\n\nAUDIO: ............... IMAGiNE /Hive ..........................Thanks\n\nOnly reason for the v2 is for the full line from start to finish for those that are picky and want it all lol So 1st 2 and half mins are on this one only thing missing is some ending credits i cut ....... Different filters used but still good video\n\n\n\nGreetz to IMAGiNE,Flawl3ss,DiLLoN,BDK,NOiR,TOXiCiNK,THC,Ez,Rx,Boobyblue,TaRiQ786,LKRG,CrEwSaDe\n","torrent":{"xt":"urn:btih:3de16f60e146e047257e32f0d0b9b17b1725b005","amp;dn":"Limitless+2011+R5+V2+Full+LiNE+AC3+XViD+-+DTRG+-+SAFCUK009","amp;tr":["udp%3A%2F%2Ftracker.openbittorrent.com%3A80","udp%3A%2F%2Fopen.demonii.com%3A1337","udp%3A%2F%2Ftracker.coppersurfer.tk%3A6969","udp%3A%2F%2Fexodus.desync.com%3A6969"],"infoHash":"3de16f60e146e047257e32f0d0b9b17b1725b005","infoHashBuffer":{"type":"Buffer","data":[61,225,111,96,225,70,224,71,37,126,50,240,208,185,177,123,23,37,176,5]},"announce":[],"urlList":[]}}